{
    "asset" : {
        "generator" : "Khronos glTF Blender I/O v3.2.43",
        "version" : "2.0"
    },
    "scene" : 0,
    "scenes" : [
        {
            "name" : "Scene",
            "nodes" : [
                0
            ]
        }
    ],
    "nodes" : [
        {
            "mesh" : 0,
            "name" : "Creepy_Hand",
            "rotation" : [
                0,
                -0.5529259443283081,
                0,
                0.8332303762435913
            ],
            "scale" : [
                0.1286339908838272,
                0.1286339908838272,
                0.1286339908838272
            ]
        }
    ],
    "materials" : [
        {
            "doubleSided" : true,
            "name" : "Material",
            "pbrMetallicRoughness" : {
                "baseColorTexture" : {
                    "index" : 0
                },
                "metallicFactor" : 0,
                "roughnessFactor" : 0.5
            }
        }
    ],
    "meshes" : [
        {
            "name" : "Creepy_Hand",
            "primitives" : [
                {
                    "attributes" : {
                        "POSITION" : 0,
                        "NORMAL" : 1,
                        "TEXCOORD_0" : 2
                    },
                    "indices" : 3,
                    "material" : 0
                }
            ]
        }
    ],
    "textures" : [
        {
            "sampler" : 0,
            "source" : 0
        }
    ],
    "images" : [
        {
            "bufferView" : 4,
            "mimeType" : "image/png",
            "name" : "whereditgo_skin"
        }
    ],
    "accessors" : [
        {
            "bufferView" : 0,
            "componentType" : 5126,
            "count" : 71076,
            "max" : [
                24.724910736083984,
                63.763797760009766,
                26.500028610229492
            ],
            "min" : [
                -26.72430992126465,
                -58.92464065551758,
                -24.737688064575195
            ],
            "type" : "VEC3"
        },
        {
            "bufferView" : 1,
            "componentType" : 5126,
            "count" : 71076,
            "type" : "VEC3"
        },
        {
            "bufferView" : 2,
            "componentType" : 5126,
            "count" : 71076,
            "type" : "VEC2"
        },
        {
            "bufferView" : 3,
            "componentType" : 5125,
            "count" : 71076,
            "type" : "SCALAR"
        }
    ],
    "bufferViews" : [
        {
            "buffer" : 0,
            "byteLength" : 852912,
            "byteOffset" : 0
        },
        {
            "buffer" : 0,
            "byteLength" : 852912,
            "byteOffset" : 852912
        },
        {
            "buffer" : 0,
            "byteLength" : 568608,
            "byteOffset" : 1705824
        },
        {
            "buffer" : 0,
            "byteLength" : 284304,
            "byteOffset" : 2274432
        },
        {
            "buffer" : 0,
            "byteLength" : 77024,
            "byteOffset" : 2558736
        }
    ],
    "samplers" : [
        {
            "magFilter" : 9729,
            "minFilter" : 9987
        }
    ],
    "buffers" : [
        {
            "byteLength" : 2635760,
            "uri" : "data:application/octet-stream;base64,"
        }
    ]
}
